<svg xmlns="http://www.w3.org/2000/svg" xmlns:xlink="http://www.w3.org/1999/xlink" width="51" zoomAndPan="magnify" viewBox="0 0 38.25 36.000001" height="48" preserveAspectRatio="xMidYMid meet" version="1.0"><defs><clipPath id="0695f109c0"><path d="M 1.246094 0 L 36.273438 0 L 36.273438 35.027344 L 1.246094 35.027344 Z M 1.246094 0 " clip-rule="nonzero"/></clipPath></defs><path fill="#5b2b33" d="M 30.734375 11.914062 C 30.734375 11.886719 30.734375 11.859375 30.726562 11.832031 C 30.703125 11.355469 30.589844 10.902344 30.390625 10.46875 C 30.195312 10.035156 29.921875 9.652344 29.578125 9.324219 C 29.234375 8.996094 28.839844 8.742188 28.398438 8.566406 C 27.957031 8.386719 27.5 8.296875 27.023438 8.296875 L 10.5 8.296875 C 10.023438 8.296875 9.5625 8.386719 9.121094 8.566406 C 8.679688 8.742188 8.285156 8.996094 7.941406 9.324219 C 7.597656 9.652344 7.324219 10.035156 7.128906 10.46875 C 6.929688 10.902344 6.820312 11.355469 6.796875 11.832031 C 6.796875 11.859375 6.789062 11.886719 6.789062 11.914062 C 6.785156 11.941406 6.777344 11.984375 6.777344 12.015625 L 6.777344 23.011719 C 6.777344 23.503906 6.871094 23.976562 7.0625 24.433594 C 7.25 24.890625 7.519531 25.292969 7.867188 25.640625 C 8.21875 25.988281 8.621094 26.257812 9.074219 26.445312 C 9.53125 26.636719 10.003906 26.730469 10.5 26.730469 L 27.023438 26.730469 C 27.515625 26.730469 27.988281 26.636719 28.445312 26.445312 C 28.902344 26.257812 29.304688 25.988281 29.652344 25.640625 C 30 25.289062 30.269531 24.890625 30.457031 24.433594 C 30.648438 23.976562 30.742188 23.503906 30.742188 23.011719 L 30.742188 12.015625 C 30.742188 11.984375 30.734375 11.949219 30.734375 11.914062 Z M 10.5 10.140625 L 27.023438 10.140625 C 27.441406 10.140625 27.816406 10.269531 28.148438 10.519531 C 28.480469 10.773438 28.703125 11.097656 28.820312 11.5 L 18.761719 17.367188 L 8.703125 11.5 C 8.816406 11.097656 9.039062 10.773438 9.371094 10.519531 C 9.707031 10.269531 10.082031 10.140625 10.5 10.140625 Z M 27.023438 24.886719 L 10.5 24.886719 C 10.25 24.886719 10.011719 24.839844 9.78125 24.742188 C 9.550781 24.648438 9.347656 24.511719 9.171875 24.335938 C 8.996094 24.160156 8.859375 23.957031 8.765625 23.726562 C 8.667969 23.5 8.621094 23.257812 8.621094 23.011719 L 8.621094 13.585938 L 18.300781 19.230469 C 18.609375 19.414062 18.917969 19.414062 19.226562 19.230469 L 28.898438 13.585938 L 28.898438 23.011719 C 28.898438 23.257812 28.851562 23.5 28.757812 23.726562 C 28.660156 23.957031 28.523438 24.160156 28.347656 24.335938 C 28.171875 24.511719 27.96875 24.648438 27.738281 24.742188 C 27.511719 24.839844 27.269531 24.886719 27.023438 24.886719 Z M 27.023438 24.886719 " fill-opacity="1" fill-rule="nonzero"/><g clip-path="url(#0695f109c0)"><path fill="#5b2b33" d="M 18.761719 0 C 18.1875 0 17.613281 0.0273438 17.042969 0.0859375 C 16.472656 0.140625 15.90625 0.226562 15.34375 0.335938 C 14.78125 0.449219 14.226562 0.585938 13.675781 0.753906 C 13.128906 0.921875 12.589844 1.113281 12.058594 1.332031 C 11.527344 1.550781 11.011719 1.796875 10.503906 2.066406 C 10 2.339844 9.507812 2.632812 9.03125 2.953125 C 8.554688 3.269531 8.09375 3.613281 7.648438 3.976562 C 7.207031 4.339844 6.78125 4.722656 6.375 5.128906 C 5.96875 5.535156 5.585938 5.960938 5.222656 6.402344 C 4.859375 6.847656 4.515625 7.304688 4.199219 7.785156 C 3.878906 8.261719 3.585938 8.75 3.316406 9.257812 C 3.042969 9.761719 2.800781 10.28125 2.578125 10.8125 C 2.359375 11.339844 2.167969 11.878906 2 12.429688 C 1.835938 12.976562 1.695312 13.535156 1.582031 14.097656 C 1.472656 14.660156 1.386719 15.226562 1.332031 15.796875 C 1.273438 16.367188 1.246094 16.941406 1.246094 17.511719 C 1.246094 18.085938 1.273438 18.660156 1.332031 19.230469 C 1.386719 19.800781 1.472656 20.367188 1.582031 20.929688 C 1.695312 21.492188 1.835938 22.046875 2 22.597656 C 2.167969 23.144531 2.359375 23.6875 2.578125 24.214844 C 2.800781 24.746094 3.042969 25.261719 3.316406 25.769531 C 3.585938 26.273438 3.878906 26.765625 4.199219 27.242188 C 4.515625 27.71875 4.859375 28.179688 5.222656 28.625 C 5.585938 29.066406 5.96875 29.492188 6.375 29.898438 C 6.78125 30.304688 7.207031 30.6875 7.648438 31.050781 C 8.09375 31.414062 8.554688 31.757812 9.03125 32.074219 C 9.507812 32.394531 10 32.6875 10.503906 32.960938 C 11.011719 33.230469 11.527344 33.472656 12.058594 33.695312 C 12.589844 33.914062 13.128906 34.105469 13.675781 34.273438 C 14.226562 34.4375 14.78125 34.578125 15.34375 34.691406 C 15.90625 34.800781 16.472656 34.886719 17.042969 34.941406 C 17.613281 35 18.1875 35.027344 18.761719 35.027344 C 19.332031 35.027344 19.90625 35 20.476562 34.941406 C 21.046875 34.886719 21.613281 34.800781 22.175781 34.691406 C 22.738281 34.578125 23.296875 34.4375 23.84375 34.273438 C 24.394531 34.105469 24.933594 33.914062 25.460938 33.695312 C 25.992188 33.472656 26.511719 33.230469 27.015625 32.960938 C 27.523438 32.6875 28.011719 32.394531 28.488281 32.074219 C 28.96875 31.757812 29.425781 31.414062 29.871094 31.050781 C 30.3125 30.6875 30.738281 30.304688 31.144531 29.898438 C 31.550781 29.492188 31.933594 29.066406 32.296875 28.625 C 32.664062 28.179688 33.003906 27.71875 33.320312 27.242188 C 33.640625 26.765625 33.933594 26.273438 34.207031 25.769531 C 34.476562 25.261719 34.722656 24.746094 34.941406 24.214844 C 35.160156 23.6875 35.351562 23.144531 35.519531 22.597656 C 35.6875 22.046875 35.824219 21.492188 35.9375 20.929688 C 36.050781 20.367188 36.132812 19.800781 36.1875 19.230469 C 36.246094 18.660156 36.273438 18.085938 36.273438 17.511719 C 36.273438 16.941406 36.246094 16.367188 36.1875 15.796875 C 36.128906 15.226562 36.046875 14.660156 35.933594 14.097656 C 35.820312 13.535156 35.683594 12.980469 35.515625 12.433594 C 35.347656 11.882812 35.15625 11.34375 34.933594 10.8125 C 34.714844 10.285156 34.46875 9.765625 34.199219 9.261719 C 33.929688 8.757812 33.636719 8.265625 33.316406 7.789062 C 32.996094 7.3125 32.65625 6.851562 32.292969 6.410156 C 31.929688 5.964844 31.542969 5.539062 31.136719 5.136719 C 30.734375 4.730469 30.308594 4.34375 29.867188 3.980469 C 29.421875 3.617188 28.960938 3.277344 28.484375 2.957031 C 28.007812 2.640625 27.519531 2.34375 27.011719 2.074219 C 26.507812 1.804688 25.988281 1.558594 25.460938 1.339844 C 24.929688 1.117188 24.390625 0.925781 23.84375 0.757812 C 23.292969 0.589844 22.738281 0.453125 22.175781 0.339844 C 21.613281 0.226562 21.046875 0.144531 20.476562 0.0859375 C 19.90625 0.03125 19.332031 0 18.761719 0 Z M 18.761719 33.183594 C 18.246094 33.183594 17.734375 33.160156 17.222656 33.109375 C 16.714844 33.058594 16.207031 32.984375 15.703125 32.882812 C 15.199219 32.78125 14.703125 32.65625 14.210938 32.507812 C 13.71875 32.359375 13.238281 32.1875 12.761719 31.992188 C 12.289062 31.792969 11.824219 31.574219 11.375 31.332031 C 10.921875 31.089844 10.480469 30.828125 10.054688 30.542969 C 9.628906 30.257812 9.214844 29.953125 8.820312 29.625 C 8.421875 29.300781 8.042969 28.957031 7.679688 28.59375 C 7.316406 28.230469 6.972656 27.851562 6.648438 27.453125 C 6.320312 27.058594 6.015625 26.644531 5.730469 26.21875 C 5.445312 25.792969 5.183594 25.351562 4.941406 24.898438 C 4.699219 24.449219 4.480469 23.984375 4.28125 23.511719 C 4.085938 23.035156 3.914062 22.554688 3.765625 22.0625 C 3.617188 21.570312 3.492188 21.074219 3.390625 20.570312 C 3.292969 20.066406 3.214844 19.558594 3.164062 19.050781 C 3.117188 18.539062 3.089844 18.027344 3.089844 17.511719 C 3.089844 17 3.117188 16.488281 3.164062 15.976562 C 3.214844 15.46875 3.292969 14.960938 3.390625 14.457031 C 3.492188 13.953125 3.617188 13.457031 3.765625 12.964844 C 3.914062 12.472656 4.085938 11.992188 4.28125 11.515625 C 4.480469 11.042969 4.699219 10.578125 4.941406 10.125 C 5.183594 9.675781 5.445312 9.234375 5.730469 8.808594 C 6.015625 8.382812 6.320312 7.96875 6.648438 7.574219 C 6.972656 7.175781 7.316406 6.796875 7.679688 6.433594 C 8.042969 6.070312 8.421875 5.726562 8.820312 5.402344 C 9.214844 5.074219 9.628906 4.769531 10.054688 4.484375 C 10.480469 4.199219 10.921875 3.9375 11.375 3.695312 C 11.824219 3.453125 12.289062 3.234375 12.761719 3.035156 C 13.238281 2.839844 13.71875 2.667969 14.210938 2.519531 C 14.703125 2.371094 15.199219 2.246094 15.703125 2.144531 C 16.207031 2.042969 16.714844 1.96875 17.222656 1.917969 C 17.734375 1.867188 18.246094 1.84375 18.761719 1.84375 C 19.273438 1.84375 19.785156 1.867188 20.296875 1.917969 C 20.808594 1.96875 21.3125 2.042969 21.816406 2.144531 C 22.320312 2.246094 22.816406 2.371094 23.308594 2.519531 C 23.800781 2.667969 24.28125 2.839844 24.757812 3.035156 C 25.230469 3.234375 25.695312 3.453125 26.148438 3.695312 C 26.597656 3.9375 27.039062 4.199219 27.464844 4.484375 C 27.894531 4.769531 28.304688 5.074219 28.699219 5.402344 C 29.097656 5.726562 29.476562 6.070312 29.839844 6.433594 C 30.203125 6.796875 30.546875 7.175781 30.875 7.574219 C 31.199219 7.96875 31.503906 8.382812 31.789062 8.808594 C 32.074219 9.234375 32.339844 9.675781 32.578125 10.125 C 32.820312 10.578125 33.039062 11.042969 33.238281 11.515625 C 33.433594 11.992188 33.605469 12.472656 33.753906 12.964844 C 33.90625 13.457031 34.027344 13.953125 34.128906 14.457031 C 34.230469 14.960938 34.304688 15.46875 34.355469 15.976562 C 34.40625 16.488281 34.429688 17 34.429688 17.511719 C 34.429688 18.027344 34.402344 18.539062 34.351562 19.050781 C 34.300781 19.558594 34.226562 20.066406 34.125 20.570312 C 34.027344 21.074219 33.902344 21.570312 33.75 22.058594 C 33.601562 22.550781 33.429688 23.035156 33.234375 23.507812 C 33.035156 23.980469 32.816406 24.445312 32.574219 24.898438 C 32.332031 25.347656 32.070312 25.789062 31.785156 26.214844 C 31.5 26.640625 31.195312 27.054688 30.867188 27.449219 C 30.542969 27.847656 30.199219 28.226562 29.835938 28.589844 C 29.472656 28.953125 29.09375 29.296875 28.695312 29.621094 C 28.300781 29.945312 27.886719 30.253906 27.460938 30.539062 C 27.035156 30.824219 26.597656 31.085938 26.144531 31.328125 C 25.691406 31.570312 25.226562 31.789062 24.753906 31.984375 C 24.28125 32.183594 23.796875 32.355469 23.308594 32.503906 C 22.816406 32.652344 22.320312 32.777344 21.816406 32.878906 C 21.3125 32.980469 20.804688 33.054688 20.296875 33.105469 C 19.785156 33.15625 19.273438 33.183594 18.761719 33.183594 Z M 18.761719 33.183594 " fill-opacity="1" fill-rule="nonzero"/></g></svg>