<svg xmlns="http://www.w3.org/2000/svg" xmlns:xlink="http://www.w3.org/1999/xlink" width="51" zoomAndPan="magnify" viewBox="0 0 38.25 36.000001" height="48" preserveAspectRatio="xMidYMid meet" version="1.0"><defs><clipPath id="887dc7ff84"><path d="M 1.289062 0 L 36.316406 0 L 36.316406 35.027344 L 1.289062 35.027344 Z M 1.289062 0 " clip-rule="nonzero"/></clipPath></defs><g clip-path="url(#887dc7ff84)"><path fill="#5b2b33" d="M 25.550781 24.6875 C 26.070312 25.339844 25.449219 26.0625 25.148438 26.335938 C 24.765625 26.703125 24.269531 27 23.660156 27.226562 C 23.351562 27.34375 23.105469 27.410156 22.871094 27.441406 L 22.734375 27.457031 C 22.136719 27.523438 21.464844 27.464844 20.679688 27.289062 C 19.121094 26.957031 17.671875 26.015625 16.246094 24.414062 C 16.03125 24.203125 14.40625 22.578125 13.367188 20.289062 C 12.324219 17.96875 12.195312 15.695312 12.183594 15.445312 C 11.925781 13.261719 12.191406 11.558594 12.960938 10.175781 C 13.386719 9.421875 13.832031 8.84375 14.308594 8.4375 C 14.476562 8.285156 14.699219 8.144531 14.996094 7.988281 C 15.550781 7.707031 16.09375 7.535156 16.601562 7.480469 C 16.925781 7.453125 18.003906 7.421875 18.144531 8.265625 L 18.285156 9.722656 C 18.347656 10.371094 18.488281 12.003906 18.488281 12.003906 C 18.59375 13.042969 18.472656 13.589844 17.460938 13.730469 C 17.386719 13.734375 17.308594 13.722656 17.214844 13.722656 C 16.988281 13.699219 16.785156 13.6875 16.601562 13.6875 L 15.867188 13.695312 L 15.886719 14.425781 C 15.902344 15.25 16.195312 17.363281 16.820312 18.753906 C 17.398438 20.035156 18.734375 21.671875 19.441406 22.316406 L 19.984375 22.8125 L 20.472656 22.257812 C 20.585938 22.132812 20.707031 21.972656 20.777344 21.878906 C 20.898438 21.71875 20.957031 21.636719 21.011719 21.59375 C 21.265625 21.375 21.507812 21.25 21.746094 21.226562 C 22.214844 21.183594 22.5625 21.519531 22.972656 21.96875 Z M 36.316406 17.511719 C 36.316406 27.171875 28.476562 35.011719 18.804688 35.011719 C 9.128906 35.011719 1.289062 27.171875 1.289062 17.511719 C 1.289062 7.855469 9.128906 0.015625 18.804688 0.015625 C 28.476562 0.015625 36.316406 7.855469 36.316406 17.511719 Z M 33.65625 17.511719 C 33.65625 9.320312 27.007812 2.675781 18.804688 2.675781 C 10.601562 2.675781 3.953125 9.320312 3.953125 17.511719 C 3.953125 25.707031 10.601562 32.347656 18.804688 32.347656 C 27.007812 32.347656 33.65625 25.707031 33.65625 17.511719 Z M 33.65625 17.511719 " fill-opacity="1" fill-rule="nonzero"/></g></svg>